<?xml version="1.0" encoding="utf-8"?>
<!-- Generator: Adobe Illustrator 17.1.0, SVG Export Plug-In . SVG Version: 6.00 Build 0)  -->
<!DOCTYPE svg PUBLIC "-//W3C//DTD SVG 1.1//EN" "http://www.w3.org/Graphics/SVG/1.1/DTD/svg11.dtd">
<svg class="mark" version="1.1" id="Layer_1" xmlns="http://www.w3.org/2000/svg" xmlns:xlink="http://www.w3.org/1999/xlink" x="0px" y="0px"
	 viewBox="0 0 220 220" style="enable-background:new 0 0 220 220;" xml:space="preserve">
<g>
	<path class="st1" d="M110.1,170c6.9,0,17.4,0,21,0c0.7,0,1.3-0.6,1.3-1.3c0-3.9,0-16.6,0.1-35c-18.4,12.5-23.2,28.2-23.8,34.9
		C108.7,169.3,109.3,170,110.1,170z"/>
	<path class="st1" d="M164.3,49.3c-0.7,0-1.3-0.1-2-0.1c-11,0-20.6,7.5-23.8,17.4c-18-3.4-27.5,3.2-34.4,15.6
		c-7.6-1.7-15.8-1.6-24-0.1c-11.8,2.2-24.8,10.4-32.8,20.6c-19.7,24.9-16.4,55.3-16.2,66c0,0.7,0.6,1.3,1.3,1.3l28.4,0
		c0.7,0,1.3-0.6,1.3-1.3l0-16.9c1.6,1.4,9,8.2,9.8,17.1c0.1,0.7,0.7,1.2,1.3,1.2h27.8c0.7,0,1.2-0.5,1.3-1.2
		c2.8-35.7,57.3-61.5,64.3-66.6c8.7-6.4,15.8-10.1,19.6-19.7C192.1,67.8,179.1,50.4,164.3,49.3z M160.8,77.3c-6.8,0-9.6-4.4-10-4.9
		c-0.4-0.5,2-9,10-9.5c4.7-0.3,8.3,3.2,8.3,7.4C169.2,74.9,165,77.3,160.8,77.3z"/>
</g>
</svg>
